<svg width="562" height="500" viewBox="0 0 562 500" fill="#000" xmlns="http://www.w3.org/2000/svg">
<path opacity="0.3" d="M517.416 48.9315C488.324 17.3781 448.405 0 405.005 0C372.564 0 342.855 10.2562 316.7 30.4814C303.502 40.6905 291.544 53.1806 281 67.7588C270.461 53.1849 258.498 40.6905 245.296 30.4814C219.145 10.2562 189.436 0 156.995 0C113.595 0 73.6716 17.3781 44.5794 48.9315C15.8345 80.116 0 122.719 0 168.898C0 216.427 17.7126 259.934 55.7404 305.822C89.7591 346.868 138.652 388.536 195.271 436.786C214.605 453.263 236.519 471.941 259.274 491.836C265.286 497.101 272.999 500 281 500C288.997 500 296.714 497.101 302.717 491.844C325.472 471.945 347.4 453.259 366.742 436.773C423.352 388.532 472.245 346.868 506.264 305.817C544.292 259.934 562 216.427 562 168.893C562 122.719 546.165 80.116 517.416 48.9315Z"/>
</svg>
