<svg width="562" height="500" xmlns="http://www.w3.org/2000/svg"><path opacity=".3" d="M517.416 48.931C488.324 17.378 448.405 0 405.005 0c-32.441 0-62.15 10.256-88.305 30.481-13.198 10.21-25.156 22.7-35.7 37.278-10.539-14.574-22.502-27.069-35.704-37.278C219.145 10.256 189.436 0 156.995 0c-43.4 0-83.323 17.378-112.416 48.931C15.834 80.117 0 122.72 0 168.899c0 47.529 17.713 91.036 55.74 136.924 34.02 41.046 82.912 82.714 139.531 130.964 19.334 16.477 41.248 35.155 64.003 55.05A32.959 32.959 0 00281 500a32.959 32.959 0 0021.717-8.156c22.755-19.899 44.683-38.585 64.025-55.071 56.61-48.241 105.503-89.905 139.522-130.956C544.292 259.934 562 216.427 562 168.893c0-46.174-15.835-88.777-44.584-119.962z"/></svg>