<svg width="568" height="568" xmlns="http://www.w3.org/2000/svg"><g opacity=".3"><path d="M409.858 209.297c0 18.056-14.627 32.692-32.683 32.692-18.047 0-32.683-14.636-32.683-32.692s14.636-32.683 32.683-32.683c18.056 0 32.683 14.627 32.683 32.683zm-187.919 0c0 18.056-14.636 32.692-32.683 32.692s-32.683-14.636-32.683-32.692 14.636-32.683 32.683-32.683 32.683 14.627 32.683 32.683zm-49.473 125.417c-7.434 0-13.468 6.025-13.468 13.468 0 58.138 46.762 105.439 104.245 105.439h45.397c57.483 0 104.245-47.04 104.245-104.855 0-7.443-6.025-13.477-13.468-13.477-7.435 0-13.459 6.034-13.459 13.477 0 42.955-34.685 77.91-77.317 77.91h-45.397c-42.632 0-77.308-35.206-77.308-78.493-.002-7.444-6.036-13.469-13.47-13.469z"/><path d="M283.642 567.419C127.239 567.419 0 440.144 0 283.705 0 127.275 127.239 0 283.642 0c156.394 0 283.633 127.275 283.633 283.705 0 156.438-127.239 283.714-283.633 283.714zm0-540.473c-141.552 0-256.705 115.181-256.705 256.759 0 141.588 115.154 256.768 256.705 256.768 141.543 0 256.696-115.181 256.696-256.768 0-141.579-115.153-256.759-256.696-256.759z"/></g></svg>