<svg width="430" height="577" xmlns="http://www.w3.org/2000/svg"><path opacity=".3" d="M174.6 375.6c0-27.733 6.133-50.667 18.4-68.8 12.8-18.133 31.2-38.133 55.2-60 17.6-16 30.4-29.333 38.4-40 8.533-11.2 12.8-23.733 12.8-37.6 0-19.733-8-35.2-24-46.4-15.467-11.733-36.267-17.6-62.4-17.6-25.067 0-47.467 5.333-67.2 16-19.2 10.133-35.467 24.533-48.8 43.2L.2 107.6c22.4-34.133 52.533-60.533 90.4-79.2C129 9.733 174.333.4 226.6.4 287.933.4 337 13.467 373.8 39.6c37.333 26.133 56 62.4 56 108.8 0 21.867-3.733 41.067-11.2 57.6-6.933 16.533-15.733 30.667-26.4 42.4-10.133 11.2-23.467 24.267-40 39.2-19.733 17.6-34.133 32.533-43.2 44.8-9.067 11.733-13.6 26.133-13.6 43.2H174.6zm60.8 200.8c-21.867 0-40.267-6.933-55.2-20.8-14.4-14.4-21.6-31.733-21.6-52s7.2-37.067 21.6-50.4c14.4-13.867 32.8-20.8 55.2-20.8 22.4 0 40.8 6.933 55.2 20.8 14.4 13.333 21.6 30.133 21.6 50.4s-7.467 37.6-22.4 52c-14.4 13.867-32.533 20.8-54.4 20.8z"/></svg>