<svg width="133" height="133" fill="none" xmlns="http://www.w3.org/2000/svg"><g opacity=".6" fill="#131313"><path d="M82.12 66.142a6.642 6.642 0 103.76-12.74 6.642 6.642 0 00-3.76 12.74zM52.392 57.37a6.642 6.642 0 103.76-12.742 6.642 6.642 0 00-3.76 12.741z"/><path d="M82.12 66.142a6.642 6.642 0 103.76-12.74 6.642 6.642 0 00-3.76 12.74zM52.392 57.37a6.642 6.642 0 103.76-12.742 6.642 6.642 0 00-3.76 12.741z"/><path d="M78.493 23.521c-23.442-6.918-48.041 6.506-54.96 29.948-6.918 23.443 6.451 48.072 29.894 54.99 23.485 6.931 48.126-6.48 55.045-29.923 6.918-23.443-6.493-48.084-29.979-55.015zM55.976 99.978c-18.771-5.54-29.488-25.23-23.949-44.002 5.54-18.771 25.23-29.488 44.002-23.948 18.772 5.54 29.489 25.23 23.949 44.001-5.54 18.772-25.23 29.489-44.002 23.949zm3.133-10.617c9.896 2.92 20.164-.744 26.131-8.447l-7.092-2.094c-4.422 4.19-10.873 6.025-17.159 4.17-6.285-1.855-10.663-6.886-12.145-12.817l-7.092-2.094c.828 9.71 7.462 18.361 17.357 21.282z"/></g></svg>