<svg width="55" height="55" fill="none" xmlns="http://www.w3.org/2000/svg"><path d="M15.075 9.875l-8.85 8.85c-8.3 8.3-8.3 21.75 0 30.05s21.75 8.3 30.05 0L51.3 33.75c2.425-2.425 2.425-6.4 0-8.85-.3-.3-.625-.575-.975-.8l.975-.975c2.425-2.425 2.425-6.4 0-8.85-.4-.4-.875-.75-1.35-1.025 1-2.3.575-5.05-1.3-6.925-2.175-2.175-5.55-2.4-8-.7a6.795 6.795 0 00-.85-1.05c-2.425-2.425-6.4-2.425-8.85 0l-6.275 6.275c-.225-.35-.5-.675-.8-.975a6.232 6.232 0 00-8.8 0zm3.525 3.55c.5-.5 1.275-.5 1.775 0s.5 1.275 0 1.775l-7.95 7.95a7.5 7.5 0 010 10.6l3.525 3.525c3.625-3.625 4.55-8.925 2.8-13.4L34.5 8.125c.5-.5 1.275-.5 1.775 0s.5 1.275 0 1.775l-11.5 11.5 3.525 3.525L43.325 9.9c.5-.5 1.275-.5 1.775 0s.5 1.275 0 1.775L30.075 26.7l3.525 3.525L45.975 17.85c.5-.5 1.275-.5 1.775 0s.5 1.275 0 1.775L33.6 33.775l3.525 3.525 8.85-8.85c.5-.5 1.275-.5 1.775 0s.5 1.275 0 1.775l-15 15.025c-6.35 6.35-16.625 6.35-22.975 0-6.35-6.35-6.35-16.625 0-22.975l8.825-8.85zM55 40c0 8.275-6.725 15-15 15v-3.75c6.2 0 11.25-5.05 11.25-11.25H55zM0 15C0 6.725 6.725 0 15 0v3.75C8.8 3.75 3.75 8.8 3.75 15H0z" fill="#151515"/></svg>