<svg width="105" height="105" fill="none" xmlns="http://www.w3.org/2000/svg"><path d="M69.68 61.527l14.19 11.438a37.316 37.316 0 005.86-16.47c-7.005-1.649-14.496.116-20.049 5.032zM39.96 37.568c3.626-6.47 3.76-14.165.663-20.66a37.317 37.317 0 00-14.852 9.221L39.96 37.568zm23.823 19.204c7.03-6.808 16.762-9.56 25.974-7.96-.835-8.525-4.54-16.715-10.953-23.04L57.739 51.9l6.044 4.871zm-17.926-14.45l6.044 4.871 21.064-26.129a37.288 37.288 0 00-24.84-5.815c3.517 8.664 2.894 18.758-2.268 27.073zm13.218 20.289l-6.043-4.871-21.064 26.129a37.287 37.287 0 0024.84 5.815c-3.517-8.664-2.894-18.758 2.267-27.073zM15.204 48.438c6.976 1.625 14.52-.145 20.049-5.032L21.064 31.968a37.317 37.317 0 00-5.86 16.47zm49.769 18.928c-3.626 6.47-3.76 14.164-.663 20.66a37.317 37.317 0 0014.852-9.222L64.973 67.366zM41.15 48.16c-7.03 6.809-16.762 9.56-25.974 7.962.835 8.524 4.54 16.714 10.953 23.04l21.064-26.13-6.043-4.871z" fill="#151515"/></svg>