<svg width="62" height="62" fill="none" xmlns="http://www.w3.org/2000/svg"><path d="M30.833 0C13.813 0 0 13.813 0 30.833c0 17.02 13.813 30.834 30.833 30.834 17.02 0 30.834-13.814 30.834-30.834S47.853 0 30.833 0zM6.167 30.833c0-1.88.246-3.73.647-5.488l14.738 14.738v3.084c0 3.391 2.776 6.166 6.167 6.166v5.951C15.602 53.743 6.167 43.383 6.167 30.834zm42.827 16.65c-.801-2.497-3.083-4.316-5.858-4.316h-3.084v-9.25a3.092 3.092 0 00-3.083-3.084h-18.5v-6.166h6.167a3.092 3.092 0 003.083-3.084v-6.166h6.167c3.392 0 6.166-2.775 6.166-6.167V7.986C49.088 11.624 55.5 20.504 55.5 30.833c0 6.414-2.498 12.272-6.506 16.65z" fill="#151515"/></svg>