<?xml version="1.0" encoding="utf-8"?><svg viewBox="0 0 179 40" xmlns="http://www.w3.org/2000/svg" xmlns:xlink="http://www.w3.org/1999/xlink"><style>:root>svg{display:none}:root>svg:target{display:block}</style><svg viewBox="0 0 48 48" id="facebook-icon" xmlns="http://www.w3.org/2000/svg"><path fill="#3f51b5" d="M24 4a20 20 0 100 40 20 20 0 100-40z"/><path fill="#fff" d="M29.368 24H26v12h-5V24h-3v-4h3v-2.41c.002-3.508 1.459-5.59 5.592-5.59H30v4h-2.287C26.104 16 26 16.6 26 17.723V20h4l-.632 4z"/></svg><svg viewBox="0 0 24 24" id="home" xmlns="http://www.w3.org/2000/svg"><path d="M12 2a1 1 0 00-.71.297l-10.087 8.8A.5.5 0 001 11.5a.5.5 0 00.5.5H4v8a1 1 0 001 1h4a1 1 0 001-1v-6h4v6a1 1 0 001 1h4a1 1 0 001-1v-8h2.5a.5.5 0 00.5-.5.5.5 0 00-.203-.402l-10.08-8.795a1 1 0 00-.006-.006A1 1 0 0012 2z"/></svg><svg fill="none" viewBox="0 0 179 1" id="line" xmlns="http://www.w3.org/2000/svg"><path stroke="#fff" d="M0 .5h179"/></svg><svg fill="none" viewBox="0 0 32 32" id="youtube-icon" xmlns="http://www.w3.org/2000/svg"><path d="M2.245 9.941a3.886 3.886 0 013.7-3.628C8.811 6.171 12.91 6 16 6c3.088 0 7.188.171 10.055.313a3.886 3.886 0 013.7 3.628C29.88 11.837 30 14.17 30 16s-.121 4.163-.244 6.059a3.886 3.886 0 01-3.7 3.628C23.188 25.829 19.087 26 16 26c-3.088 0-7.188-.171-10.056-.313a3.886 3.886 0 01-3.7-3.628C2.122 20.163 2 17.83 2 16s.121-4.163.245-6.059z" fill="#FC0D1B"/><path d="M13 12v8l8-4-8-4z" fill="#fff"/></svg></svg>