<svg viewBox="0 0 568 577" xmlns="http://www.w3.org/2000/svg" xmlns:xlink="http://www.w3.org/1999/xlink"><style>:root&gt;svg{display:none}:root&gt;svg:target{display:block}</style><svg viewBox="0 0 562 500" id="dates-bg" xmlns="http://www.w3.org/2000/svg"><path opacity=".3" d="M517.416 48.931C488.324 17.378 448.405 0 405.005 0c-32.441 0-62.15 10.256-88.305 30.481-13.198 10.21-25.156 22.7-35.7 37.278-10.539-14.574-22.502-27.069-35.704-37.278C219.145 10.256 189.436 0 156.995 0c-43.4 0-83.323 17.378-112.416 48.931C15.834 80.117 0 122.72 0 168.899c0 47.529 17.713 91.036 55.74 136.924 34.02 41.046 82.912 82.714 139.531 130.964 19.334 16.477 41.248 35.155 64.003 55.05A32.959 32.959 0 00281 500a32.959 32.959 0 0021.717-8.156c22.755-19.899 44.683-38.585 64.025-55.071 56.61-48.241 105.503-89.905 139.522-130.956C544.292 259.934 562 216.427 562 168.893c0-46.174-15.835-88.777-44.584-119.962z"/></svg><svg viewBox="0 0 48 48" id="facebook-icon" xmlns="http://www.w3.org/2000/svg"><path fill="#3f51b5" d="M24 4a20 20 0 100 40 20 20 0 100-40z"/><path fill="#fff" d="M29.368 24H26v12h-5V24h-3v-4h3v-2.41c.002-3.508 1.459-5.59 5.592-5.59H30v4h-2.287C26.104 16 26 16.6 26 17.723V20h4l-.632 4z"/></svg><svg fill="none" viewBox="0 0 13 24" id="facebook-transparent" xmlns="http://www.w3.org/2000/svg"><path d="M9.997 3.985h2.191V.169C11.81.117 10.51 0 8.996 0 5.837 0 3.673 1.987 3.673 5.639V9H.187v4.266h3.486V24h4.274V13.267h3.345l.531-4.266H7.946V6.062c.001-1.233.333-2.077 2.051-2.077z" fill="#fff"/></svg><svg viewBox="0 0 568 568" id="happy" xmlns="http://www.w3.org/2000/svg"><g opacity=".3"><path d="M409.858 209.297c0 18.056-14.627 32.692-32.683 32.692-18.047 0-32.683-14.636-32.683-32.692s14.636-32.683 32.683-32.683c18.056 0 32.683 14.627 32.683 32.683zm-187.919 0c0 18.056-14.636 32.692-32.683 32.692s-32.683-14.636-32.683-32.692 14.636-32.683 32.683-32.683 32.683 14.627 32.683 32.683zm-49.473 125.417c-7.434 0-13.468 6.025-13.468 13.468 0 58.138 46.762 105.439 104.245 105.439h45.397c57.483 0 104.245-47.04 104.245-104.855 0-7.443-6.025-13.477-13.468-13.477-7.435 0-13.459 6.034-13.459 13.477 0 42.955-34.685 77.91-77.317 77.91h-45.397c-42.632 0-77.308-35.206-77.308-78.493-.002-7.444-6.036-13.469-13.47-13.469z"/><path d="M283.642 567.419C127.239 567.419 0 440.144 0 283.705 0 127.275 127.239 0 283.642 0c156.394 0 283.633 127.275 283.633 283.705 0 156.438-127.239 283.714-283.633 283.714zm0-540.473c-141.552 0-256.705 115.181-256.705 256.759 0 141.588 115.154 256.768 256.705 256.768 141.543 0 256.696-115.181 256.696-256.768 0-141.579-115.153-256.759-256.696-256.759z"/></g></svg><svg viewBox="0 0 24 24" id="home" xmlns="http://www.w3.org/2000/svg"><path d="M12 2a1 1 0 00-.71.297l-10.087 8.8A.5.5 0 001 11.5a.5.5 0 00.5.5H4v8a1 1 0 001 1h4a1 1 0 001-1v-6h4v6a1 1 0 001 1h4a1 1 0 001-1v-8h2.5a.5.5 0 00.5-.5.5.5 0 00-.203-.402l-10.08-8.795a1 1 0 00-.006-.006A1 1 0 0012 2z"/></svg><svg fill="none" viewBox="0 0 179 1" id="line" xmlns="http://www.w3.org/2000/svg"><path stroke="#fff" d="M0 .5h179"/></svg><svg viewBox="0 0 568 568" id="sad" xmlns="http://www.w3.org/2000/svg"><g opacity=".3"><path d="M409.858 209.297c0 18.056-14.627 32.692-32.683 32.692-18.047 0-32.683-14.636-32.683-32.692s14.636-32.683 32.683-32.683c18.056 0 32.683 14.627 32.683 32.683zm-187.919 0c0 18.056-14.636 32.692-32.683 32.692s-32.683-14.636-32.683-32.692 14.636-32.683 32.683-32.683 32.683 14.627 32.683 32.683zm-49.473 244.324c-7.434 0-13.468-6.025-13.468-13.468 0-58.138 46.762-105.439 104.245-105.439h45.397c57.483 0 104.245 47.04 104.245 104.855 0 7.443-6.025 13.477-13.468 13.477-7.435 0-13.459-6.034-13.459-13.477 0-42.955-34.685-77.91-77.317-77.91h-45.397c-42.632 0-77.308 35.206-77.308 78.493-.002 7.444-6.036 13.469-13.47 13.469z"/><path d="M283.642 567.419C127.239 567.419 0 440.144 0 283.705 0 127.275 127.239 0 283.642 0c156.394 0 283.633 127.275 283.633 283.705 0 156.438-127.239 283.714-283.633 283.714zm0-540.473c-141.552 0-256.705 115.181-256.705 256.759 0 141.588 115.154 256.768 256.705 256.768 141.543 0 256.696-115.181 256.696-256.768 0-141.579-115.153-256.759-256.696-256.759z"/></g></svg><svg viewBox="0 0 430 577" id="work-bg" xmlns="http://www.w3.org/2000/svg"><path opacity=".3" d="M174.6 375.6c0-27.733 6.133-50.667 18.4-68.8 12.8-18.133 31.2-38.133 55.2-60 17.6-16 30.4-29.333 38.4-40 8.533-11.2 12.8-23.733 12.8-37.6 0-19.733-8-35.2-24-46.4-15.467-11.733-36.267-17.6-62.4-17.6-25.067 0-47.467 5.333-67.2 16-19.2 10.133-35.467 24.533-48.8 43.2L.2 107.6c22.4-34.133 52.533-60.533 90.4-79.2C129 9.733 174.333.4 226.6.4 287.933.4 337 13.467 373.8 39.6c37.333 26.133 56 62.4 56 108.8 0 21.867-3.733 41.067-11.2 57.6-6.933 16.533-15.733 30.667-26.4 42.4-10.133 11.2-23.467 24.267-40 39.2-19.733 17.6-34.133 32.533-43.2 44.8-9.067 11.733-13.6 26.133-13.6 43.2H174.6zm60.8 200.8c-21.867 0-40.267-6.933-55.2-20.8-14.4-14.4-21.6-31.733-21.6-52s7.2-37.067 21.6-50.4c14.4-13.867 32.8-20.8 55.2-20.8 22.4 0 40.8 6.933 55.2 20.8 14.4 13.333 21.6 30.133 21.6 50.4s-7.467 37.6-22.4 52c-14.4 13.867-32.533 20.8-54.4 20.8z"/></svg><svg fill="none" viewBox="0 0 32 32" id="youtube-icon" xmlns="http://www.w3.org/2000/svg"><path d="M2.245 9.941a3.886 3.886 0 013.7-3.628C8.811 6.171 12.91 6 16 6c3.088 0 7.188.171 10.055.313a3.886 3.886 0 013.7 3.628C29.88 11.837 30 14.17 30 16s-.121 4.163-.244 6.059a3.886 3.886 0 01-3.7 3.628C23.188 25.829 19.087 26 16 26c-3.088 0-7.188-.171-10.056-.313a3.886 3.886 0 01-3.7-3.628C2.122 20.163 2 17.83 2 16s.121-4.163.245-6.059z" fill="#FC0D1B"/><path d="M13 12v8l8-4-8-4z" fill="#fff"/></svg></svg>